#!OML:ASF E:\emotionWalksFemale\Project 1\Capture day 1\Session 1\Female1.ASF
:FULLY-SPECIFIED
:DEGREES
1568
root 9.44516 15.4688 -7.79854 360.572 1.39994 -360.112
lowerback 4.25556 -0.880204 0.337043
upperback -4.99813 -1.01742 2.0104
thorax -7.58845 -0.454585 2.03023
lowerneck -8.44189 -1.36166 -2.68154
upperneck 6.09107 -1.59209 1.07705
head 3.50939 -0.808564 0.738979
rclavicle -2.68359e-014 1.11319e-014
rhumerus -46.852 -8.46191 -73.1231
rradius 30.3999
rwrist 21.8883
rhand 2.77893 -54.1262
rfingers 7.12502
rthumb 28.2493 -802.017
lclavicle -2.68359e-014 1.11319e-014
lhumerus -44.6539 -0.933123 89.2141
lradius 48.65
lwrist -6.22677
lhand -6.71445 -33.769
lfingers 7.12502
lthumb 19.1454 -4.69135
rfemur -19.3482 30.3793 16.1314
rtibia 18.0672
rfoot -18.8639 -39.9659
rtoes 9.74509
lfemur 15.7628 -11.235 -27.2302
ltibia 21.3041
lfoot -11.2661 13.6582
ltoes -15.4709
1569
root 9.41104 15.4806 -7.65371 360.429 1.20139 -360.313
lowerback 4.0951 -0.788372 0.564914
upperback -4.98708 -0.884185 1.93559
thorax -7.49158 -0.404787 1.80578
lowerneck -7.90953 -1.30825 -2.85204
upperneck 5.73759 -1.55766 1.63265
head 3.29236 -0.772398 0.955155
rclavicle -1.28216e-014 -1.59028e-015
rhumerus -46.8332 -8.79865 -73.0058
rradius 30.1403
rwrist 22.0204
rhand 1.8407 -53.8469
rfingers 7.12502
rthumb 27.3522 -801.882
lclavicle -1.28216e-014 -1.59028e-015
lhumerus -45.4699 -0.728165 88.8794
lradius 48.1655
lwrist -6.25662
lhand -5.98718 -33.5564
lfingers 7.12502
lthumb 19.8447 -4.54951
rfemur -18.3777 29.5821 17.1035
rtibia 17.9255
rfoot -18.2601 -38.9918
rtoes 9.27058
lfemur 15.2212 -9.97416 -26.4975
ltibia 23.1946
lfoot -10.0493 12.9414
ltoes -18.0623
1570
root 9.37493 15.4994 -7.51244 360.37 1.10059 -360.354
lowerback 4.05785 -0.715271 0.610934
upperback -5.05321 -0.788663 1.83574
thorax -7.54509 -0.363127 1.66565
lowerneck -8.07777 -1.37776 -2.81182
upperneck 6.14504 -1.65911 1.70103
head 3.46972 -0.819842 0.965978
rclavicle 4.27387e-015 -1.19271e-014
rhumerus -46.8546 -9.01263 -72.9234
rradius 30.1409
rwrist 22.0878
rhand 1.77285 -53.9418
rfingers 7.12502
rthumb 27.2873 -801.987
lclavicle 4.27387e-015 -1.19271e-014
lhumerus -46.3766 -0.62783 88.6024
lradius 47.6317
lwrist -6.32012
lhand -5.32847 -33.1813
lfingers 7.12502
lthumb 20.4778 -4.24121
rfemur -17.5964 29.2612 17.7015
rtibia 17.8321
rfoot -17.7219 -38.6227
rtoes 7.97702
lfemur 14.4271 -8.84056 -25.8645
ltibia 25.2213
lfoot -8.6702 12.2402
ltoes -14.8106
1571
root 9.33402 15.5233 -7.37809 360.498 1.02773 -360.33
lowerback 4.005 -0.674207 0.509249
upperback -5.14395 -0.743216 1.79852
thorax -7.61188 -0.335789 1.67956
lowerneck -8.64773 -1.47834 -2.80012
upperneck 6.73182 -1.77229 1.56099
head 3.78842 -0.881729 0.910934
rclavicle 4.37326e-015 -8.34896e-015
rhumerus -46.677 -9.05756 -72.8323
rradius 30.2828
rwrist 22.3237
rhand 2.34614 -54.2359
rfingers 7.12502
rthumb 27.8356 -802.194
lclavicle 4.37326e-015 -8.34896e-015
lhumerus -47.0758 -0.388228 88.3765
lradius 47.0421
lwrist -6.46133
lhand -4.65612 -32.6805
lfingers 7.12502
lthumb 21.1238 -3.81118
rfemur -17.0855 28.8506 18.129
rtibia 17.7831
rfoot -17.53 -38.1596
rtoes 7.35498
lfemur 13.2872 -7.63765 -25.1709
ltibia 27.3533
lfoot -7.07783 11.4816
ltoes -10.9165
1572
root 9.28997 15.541 -7.24962 360.565 0.868752 -360.402
lowerback 3.98624 -0.663523 0.391226
upperback -5.2765 -0.734938 1.81683
thorax -7.74213 -0.323421 1.76636
lowerneck -8.56214 -1.44734 -2.87387
upperneck 6.86596 -1.73549 1.6777
head 3.82098 -0.861128 0.965976
rclavicle -3.18055e-015 1.07344e-014
rhumerus -46.5215 -8.61314 -73.0332
rradius 30.4068
rwrist 22.1429
rhand 2.58616 -54.7073
rfingers 7.12502
rthumb 28.065 -802.628
lclavicle -3.18055e-015 1.07344e-014
lhumerus -47.7174 0.0253616 88.0421
lradius 46.2423
lwrist -6.64275
lhand -3.8227 -32.2344
lfingers 7.12502
lthumb 21.9242 -3.45669
rfemur -16.527 27.8194 18.8252
rtibia 17.8106
rfoot -17.0469 -37.0513
rtoes 7.15367
lfemur 12.202 -6.26533 -24.3396
ltibia 29.5472
lfoot -5.36382 10.5674
ltoes -8.6503
1573
root 9.25047 15.5467 -7.11768 360.319 0.55325 -360.582
lowerback 4.15098 -0.599175 0.415596
upperback -5.20509 -0.642209 1.86518
thorax -7.76397 -0.277723 1.7953
lowerneck -8.91341 -1.41733 -2.98166
upperneck 7.19702 -1.68447 1.78994
head 4.01077 -0.833548 1.02666
rclavicle -6.26172e-015 -1.07344e-014
rhumerus -46.1112 -8.03119 -73.384
rradius 30.4893
rwrist 21.8055
rhand 2.91233 -55.5083
rfingers 7.12502
rthumb 28.3768 -803.378
lclavicle -6.26172e-015 -1.07344e-014
lhumerus -48.1064 0.414423 87.6706
lradius 45.2389
lwrist -6.92609
lhand -2.63706 -31.753
lfingers 7.12502
lthumb 23.0623 -3.11297
rfemur -15.6505 27.0071 19.77
rtibia 17.9005
rfoot -16.4745 -35.9512
rtoes 6.79777
lfemur 11.5005 -4.8715 -23.4897
ltibia 31.8045
lfoot -3.71023 9.9641
ltoes -6.41327
